# xmcd CD database file
#
# Track frame offsets:
#	150
#	16872
#	34700
#	62820
#	89807
#	127517
#	149482
#	163767
#
# Disc length: 2552 seconds
#
# Revision: 0
# Processed by: cddbd v1.5.1PL0 Copyright (c) Steve Scherf et al.
# Submitted via: CDex 1.51
#
DISCID=6609f608
DTITLE=Various Artist - Notes Worth Holding, Vol. 1
DYEAR=2004
DGENRE=Jazz
TTITLE0=Donald Byrd - Witch-Hunt
TTITLE1=Lou Donaldson - You're Welcome, Stop On By
TTITLE2=Ronnie Foster - On The Avenue
TTITLE3=Gene Harris - Higga-Boom
TTITLE4=Bobby Hutcherson - Zuri Dance
TTITLE5=Dom Minasi - When Joanna Loved Me
TTITLE6=Alphonze Mouzon - Funky Snake Foot
TTITLE7=Moacir Santos - A Saudade Mata A Gente
EXTD=YEAR: 2004
EXTT0=
EXTT1=
EXTT2=
EXTT3=
EXTT4=
EXTT5=
EXTT6=
EXTT7=
PLAYORDER=
